<svg width="114" height="122" viewBox="0 0 114 122" fill="none" xmlns="http://www.w3.org/2000/svg">
<path fill-rule="evenodd" clip-rule="evenodd" d="M44.9575 23.2832C48.0683 20.6106 52.0005 19.0839 56.0997 18.9573C57.3454 14.1187 59.9749 9.74834 63.6664 6.38129C67.3579 3.01423 71.951 0.796628 76.8835 0C78.663 4.67224 79.0406 9.76218 77.9699 14.6458C76.8993 19.5295 74.4269 23.9946 70.856 27.4939C72.7953 31.1054 73.4399 35.2719 72.6826 39.3006C71.9253 43.3292 69.8118 46.9773 66.6935 49.6381C68.0441 32.8341 52.8744 24.0812 39.0025 33.6464C39.7452 29.6131 41.8468 25.9557 44.9575 23.2832ZM66.9406 9.74873C66.1427 10.1429 65.4796 10.7648 65.0352 11.5359C64.4397 12.5692 64.2788 13.7967 64.5879 14.9486C64.8971 16.1005 65.651 17.0825 66.6839 17.6788C67.4546 18.1237 68.34 18.3301 69.228 18.2717C70.1161 18.2134 70.9669 17.893 71.6728 17.3511C72.3787 16.8092 72.9081 16.07 73.1939 15.2272C73.4797 14.3844 73.5091 13.4757 73.2784 12.6162C73.0477 11.7567 72.5673 10.9849 71.8979 10.3984C71.2285 9.81195 70.4002 9.4372 69.5178 9.32156C68.6354 9.20591 67.7385 9.35457 66.9406 9.74873ZM48.2597 38.8369C48.2188 39.0802 48.129 39.3126 47.9957 39.5201L41.4394 50.9118C41.1979 51.3306 40.7998 51.6362 40.3329 51.7615C39.866 51.8868 39.3684 51.8215 38.9496 51.5799C38.5308 51.3384 38.2252 50.9403 38.0999 50.4734C37.9746 50.0065 38.0399 49.5089 38.2815 49.0901L39.8629 46.3311C35.9674 41.8871 33.597 36.3128 33.0986 30.4243C32.6002 24.5357 34.0001 18.6423 37.0932 13.6069C40.1864 8.57142 44.8104 4.65847 50.2881 2.44093C55.7659 0.223388 61.8097 -0.182262 67.5346 1.28337C66.6968 1.75013 65.8849 2.26199 65.1025 2.81668C59.9294 1.91066 54.603 2.61358 49.8421 4.83056C45.0812 7.04754 41.1151 10.6718 38.4791 15.2142C35.8432 19.7566 34.6644 24.9983 35.1018 30.2319C35.5392 35.4654 37.5718 40.4387 40.9251 44.4805L44.8425 37.7032C44.9552 37.4838 45.1113 37.2895 45.3012 37.1322C45.4912 36.9749 45.7111 36.8578 45.9477 36.788C46.1843 36.7182 46.4326 36.6972 46.6775 36.7263C46.9224 36.7553 47.1589 36.8337 47.3726 36.9569C47.5863 37.08 47.7728 37.2453 47.9207 37.4426C48.0687 37.64 48.175 37.8653 48.2333 38.105C48.2915 38.3447 48.3005 38.5937 48.2597 38.8369ZM80.4452 8.73364C83.769 12.134 86.1595 16.334 87.386 20.9281H87.3716C88.5898 25.4713 88.6295 30.2501 87.4871 34.8129C86.3447 39.3758 84.0578 43.5721 80.8425 47.0053C77.6272 50.4385 73.5898 52.9953 69.1115 54.4341C64.6333 55.8729 59.8621 56.1462 55.2489 55.2282L53.6627 57.9872C53.402 58.3624 53.0097 58.626 52.5638 58.7256C52.1178 58.8252 51.6507 58.7536 51.2551 58.5249C50.8594 58.2963 50.5642 57.9273 50.4279 57.4911C50.2916 57.055 50.3242 56.5835 50.5192 56.1703L57.0994 44.7737C57.2191 44.567 57.3782 44.3859 57.5678 44.2407C57.7575 44.0955 57.9738 43.989 58.2046 43.9274C58.4353 43.8658 58.676 43.8503 58.9127 43.8817C59.1495 43.9131 59.3777 43.9908 59.5845 44.1104C59.7912 44.23 59.9723 44.3892 60.1175 44.5788C60.2628 44.7684 60.3692 44.9848 60.4308 45.2156C60.4924 45.4463 60.5079 45.687 60.4765 45.9237C60.4451 46.1605 60.3674 46.3887 60.2478 46.5955L56.3352 53.3872C61.5114 54.2678 66.8332 53.5398 71.5827 51.3013C76.3322 49.0628 80.281 45.4216 82.8964 40.8687C85.5118 36.3158 86.668 31.0704 86.2091 25.8399C85.7502 20.6094 83.6982 15.6455 80.3299 11.6176C80.4192 10.659 80.4577 9.69633 80.4452 8.73364ZM55.2922 37.386C54.873 37.1473 54.3765 37.0841 53.9109 37.2102C53.4454 37.3362 53.0486 37.6413 52.8071 38.0589L41.3529 57.891C41.1114 58.3124 41.047 58.8124 41.1741 59.2811C41.3012 59.7499 41.6093 60.1489 42.0307 60.3905C42.452 60.6321 42.952 60.6964 43.4208 60.5693C43.8895 60.4422 44.2885 60.1341 44.5301 59.7127L55.9651 39.895C56.0864 39.6863 56.1652 39.4556 56.197 39.2163C56.2288 38.977 56.213 38.7337 56.1505 38.5005C56.088 38.2673 55.9799 38.0488 55.8326 37.8575C55.6853 37.6663 55.5016 37.506 55.2922 37.386Z" fill="#1428BF"/>
<path d="M39.5453 81C39.3309 81 39.2006 80.9004 39.1547 80.7013L38.6492 78.9089C38.6185 78.8477 38.5802 78.817 38.5343 78.817H33.6628C33.6168 78.817 33.5785 78.8477 33.5479 78.9089L33.0423 80.7013C32.9964 80.9004 32.8662 81 32.6517 81H28.7223C28.4466 81 28.347 80.8698 28.4236 80.6094L33.2721 65.1906C33.3334 65.0068 33.4636 64.9149 33.6628 64.9149H38.5343C38.7334 64.9149 38.8636 65.0068 38.9249 65.1906L43.7734 80.6094C43.7887 80.64 43.7964 80.686 43.7964 80.7472C43.7964 80.9157 43.6892 81 43.4747 81H39.5453ZM34.5589 75.3702C34.5436 75.4621 34.5743 75.5081 34.6509 75.5081H37.5232C37.6151 75.5081 37.6458 75.4621 37.6151 75.3702L36.1445 70.223C36.1292 70.177 36.1062 70.154 36.0755 70.154C36.0449 70.154 36.0219 70.177 36.0066 70.223L34.5589 75.3702ZM50.6796 81.1838C49.4234 81.1838 48.3128 80.9311 47.3477 80.4255C46.3979 79.92 45.6549 79.2077 45.1187 78.2885C44.5979 77.3694 44.3375 76.3123 44.3375 75.1174V70.7745C44.3375 69.5796 44.5979 68.5302 45.1187 67.6264C45.6549 66.7072 46.3979 65.9949 47.3477 65.4894C48.3128 64.9838 49.4234 64.7311 50.6796 64.7311C51.9051 64.7311 53.0004 64.9762 53.9656 65.4664C54.9307 65.9413 55.6736 66.5923 56.1945 67.4196C56.7307 68.2468 56.9987 69.1506 56.9987 70.1311V70.154C56.9987 70.2613 56.9681 70.3455 56.9068 70.4068C56.8456 70.4681 56.7613 70.4987 56.6541 70.4987H53.0464C52.8166 70.4987 52.7017 70.4298 52.7017 70.2919C52.7017 69.7864 52.5179 69.3498 52.1502 68.9821C51.7979 68.6145 51.3077 68.4306 50.6796 68.4306C50.0668 68.4306 49.5766 68.6374 49.209 69.0511C48.8413 69.4494 48.6575 69.9855 48.6575 70.6596V75.2553C48.6575 75.914 48.8643 76.4502 49.2779 76.8638C49.7068 77.2774 50.2353 77.4843 50.8634 77.4843C51.4302 77.4843 51.8898 77.3311 52.2421 77.0247C52.6098 76.703 52.7936 76.2664 52.7936 75.7149V75.4162C52.7936 75.3396 52.7553 75.3013 52.6787 75.3013H50.6566C50.5494 75.3013 50.4651 75.2706 50.4039 75.2094C50.3426 75.1481 50.3119 75.0638 50.3119 74.9566V72.1991C50.3119 72.0919 50.3426 72.0077 50.4039 71.9464C50.4651 71.8851 50.5494 71.8545 50.6566 71.8545H56.6541C56.7613 71.8545 56.8456 71.8851 56.9068 71.9464C56.9681 72.0077 56.9987 72.0919 56.9987 72.1991V75.3472C56.9987 76.4809 56.7307 77.4919 56.1945 78.3804C55.6736 79.2689 54.9307 79.9583 53.9656 80.4485C53.0158 80.9387 51.9204 81.1838 50.6796 81.1838ZM67.048 81C66.8488 81 66.7186 80.9157 66.6573 80.7472L64.1297 74.9106C64.099 74.8494 64.0531 74.8187 63.9918 74.8187H63.0267C62.9501 74.8187 62.9118 74.857 62.9118 74.9336V80.6553C62.9118 80.7626 62.8812 80.8468 62.8199 80.9081C62.7586 80.9694 62.6744 81 62.5671 81H58.9365C58.8293 81 58.745 80.9694 58.6837 80.9081C58.6225 80.8468 58.5918 80.7626 58.5918 80.6553V65.2596C58.5918 65.1523 58.6225 65.0681 58.6837 65.0068C58.745 64.9455 58.8293 64.9149 58.9365 64.9149H65.899C66.9408 64.9149 67.8522 65.1294 68.6335 65.5583C69.4301 65.9872 70.0429 66.5923 70.4718 67.3736C70.9161 68.1396 71.1382 69.0281 71.1382 70.0391C71.1382 71.0502 70.8854 71.9387 70.3799 72.7047C69.8897 73.4553 69.208 74.0068 68.3348 74.3591C68.2582 74.3898 68.2352 74.4434 68.2659 74.52L71.1842 80.5864C71.2148 80.6783 71.2301 80.7319 71.2301 80.7472C71.2301 80.8238 71.1995 80.8851 71.1382 80.9311C71.0769 80.977 71.0003 81 70.9084 81H67.048ZM63.0267 68.6145C62.9501 68.6145 62.9118 68.6528 62.9118 68.7294V71.4179C62.9118 71.4945 62.9501 71.5328 63.0267 71.5328H65.1867C65.6769 71.5328 66.0752 71.4026 66.3816 71.1421C66.688 70.8664 66.8412 70.514 66.8412 70.0851C66.8412 69.6409 66.688 69.2885 66.3816 69.0281C66.0752 68.7523 65.6769 68.6145 65.1867 68.6145H63.0267ZM78.9564 81.2757C77.6849 81.2757 76.5589 81.023 75.5785 80.5174C74.6134 79.9966 73.8627 79.2766 73.3266 78.3574C72.7904 77.423 72.5223 76.343 72.5223 75.1174V70.7974C72.5223 69.6026 72.7904 68.5455 73.3266 67.6264C73.8627 66.7072 74.6134 65.9949 75.5785 65.4894C76.5589 64.9838 77.6849 64.7311 78.9564 64.7311C80.2432 64.7311 81.3691 64.9838 82.3342 65.4894C83.3146 65.9949 84.0729 66.7072 84.6091 67.6264C85.1453 68.5455 85.4134 69.6026 85.4134 70.7974V75.1174C85.4134 76.343 85.1453 77.423 84.6091 78.3574C84.0729 79.2766 83.3146 79.9966 82.3342 80.5174C81.3691 81.023 80.2432 81.2757 78.9564 81.2757ZM78.9564 77.5762C79.5998 77.5762 80.1129 77.3694 80.4959 76.9557C80.8942 76.5268 81.0934 75.96 81.0934 75.2553V70.7515C81.0934 70.0468 80.8942 69.4877 80.4959 69.074C80.1129 68.6451 79.5998 68.4306 78.9564 68.4306C78.3283 68.4306 77.8151 68.6451 77.4168 69.074C77.0338 69.4877 76.8423 70.0468 76.8423 70.7515V75.2553C76.8423 75.96 77.0338 76.5268 77.4168 76.9557C77.8151 77.3694 78.3283 77.5762 78.9564 77.5762ZM24.4566 101C24.2574 101 24.1272 100.916 24.0659 100.747L21.5383 94.9106C21.5076 94.8494 21.4617 94.8187 21.4004 94.8187H20.4353C20.3587 94.8187 20.3204 94.857 20.3204 94.9336V100.655C20.3204 100.763 20.2898 100.847 20.2285 100.908C20.1672 100.969 20.0829 101 19.9757 101H16.3451C16.2378 101 16.1536 100.969 16.0923 100.908C16.031 100.847 16.0004 100.763 16.0004 100.655V85.2596C16.0004 85.1523 16.031 85.0681 16.0923 85.0068C16.1536 84.9455 16.2378 84.9149 16.3451 84.9149H23.3076C24.3493 84.9149 25.2608 85.1294 26.0421 85.5583C26.8387 85.9872 27.4515 86.5923 27.8804 87.3736C28.3246 88.1396 28.5468 89.0281 28.5468 90.0391C28.5468 91.0502 28.294 91.9387 27.7885 92.7047C27.2983 93.4553 26.6166 94.0068 25.7434 94.3591C25.6668 94.3898 25.6438 94.4434 25.6744 94.52L28.5927 100.586C28.6234 100.678 28.6387 100.732 28.6387 100.747C28.6387 100.824 28.6081 100.885 28.5468 100.931C28.4855 100.977 28.4089 101 28.317 101H24.4566ZM20.4353 88.6145C20.3587 88.6145 20.3204 88.6528 20.3204 88.7294V91.4179C20.3204 91.4945 20.3587 91.5328 20.4353 91.5328H22.5953C23.0855 91.5328 23.4838 91.4026 23.7902 91.1421C24.0966 90.8664 24.2498 90.514 24.2498 90.0851C24.2498 89.6409 24.0966 89.2885 23.7902 89.0281C23.4838 88.7523 23.0855 88.6145 22.5953 88.6145H20.4353ZM36.3649 101.276C35.0934 101.276 33.9675 101.023 32.9871 100.517C32.0219 99.9966 31.2713 99.2766 30.7351 98.3574C30.199 97.423 29.9309 96.343 29.9309 95.1174V90.7974C29.9309 89.6026 30.199 88.5455 30.7351 87.6264C31.2713 86.7072 32.0219 85.9949 32.9871 85.4894C33.9675 84.9838 35.0934 84.7311 36.3649 84.7311C37.6517 84.7311 38.7777 84.9838 39.7428 85.4894C40.7232 85.9949 41.4815 86.7072 42.0177 87.6264C42.5539 88.5455 42.8219 89.6026 42.8219 90.7974V95.1174C42.8219 96.343 42.5539 97.423 42.0177 98.3574C41.4815 99.2766 40.7232 99.9966 39.7428 100.517C38.7777 101.023 37.6517 101.276 36.3649 101.276ZM36.3649 97.5762C37.0083 97.5762 37.5215 97.3694 37.9045 96.9557C38.3028 96.5268 38.5019 95.96 38.5019 95.2553V90.7515C38.5019 90.0468 38.3028 89.4877 37.9045 89.074C37.5215 88.6451 37.0083 88.4306 36.3649 88.4306C35.7368 88.4306 35.2237 88.6451 34.8254 89.074C34.4424 89.4877 34.2509 90.0468 34.2509 90.7515V95.2553C34.2509 95.96 34.4424 96.5268 34.8254 96.9557C35.2237 97.3694 35.7368 97.5762 36.3649 97.5762ZM50.545 101.184C49.2888 101.184 48.1781 100.939 47.213 100.449C46.2632 99.9583 45.5203 99.2689 44.9841 98.3804C44.4632 97.4766 44.2028 96.4349 44.2028 95.2553V90.6136C44.2028 89.4494 44.4632 88.423 44.9841 87.5345C45.5203 86.646 46.2632 85.9566 47.213 85.4664C48.1781 84.9762 49.2888 84.7311 50.545 84.7311C51.8011 84.7311 52.9041 84.9609 53.8539 85.4204C54.819 85.88 55.562 86.5311 56.0828 87.3736C56.619 88.2009 56.8871 89.166 56.8871 90.2689C56.8871 90.4068 56.7722 90.4911 56.5424 90.5217L52.9118 90.7515H52.8428C52.659 90.7515 52.5671 90.6672 52.5671 90.4987C52.5671 89.8706 52.3832 89.3728 52.0156 89.0051C51.6479 88.6221 51.1577 88.4306 50.545 88.4306C49.9322 88.4306 49.442 88.6221 49.0743 89.0051C48.7067 89.3728 48.5228 89.8706 48.5228 90.4987V95.4391C48.5228 96.0519 48.7067 96.5498 49.0743 96.9328C49.442 97.3004 49.9322 97.4843 50.545 97.4843C51.1577 97.4843 51.6479 97.3004 52.0156 96.9328C52.3832 96.5498 52.5671 96.0519 52.5671 95.4391C52.5671 95.3472 52.5977 95.2783 52.659 95.2323C52.7203 95.1864 52.8045 95.1711 52.9118 95.1864L56.5424 95.3702C56.7722 95.3855 56.8871 95.4621 56.8871 95.6C56.8871 96.703 56.619 97.6757 56.0828 98.5183C55.562 99.3609 54.819 100.02 53.8539 100.494C52.9041 100.954 51.8011 101.184 50.545 101.184ZM58.757 101C58.6497 101 58.5655 100.969 58.5042 100.908C58.4429 100.847 58.4123 100.763 58.4123 100.655V85.2596C58.4123 85.1523 58.4429 85.0681 58.5042 85.0068C58.5655 84.9455 58.6497 84.9149 58.757 84.9149H62.3876C62.4948 84.9149 62.5791 84.9455 62.6404 85.0068C62.7017 85.0681 62.7323 85.1523 62.7323 85.2596V90.7515C62.7323 90.7974 62.7476 90.8281 62.7783 90.8434C62.8089 90.8587 62.8395 90.8434 62.8702 90.7974L66.8685 85.1217C66.9604 84.9838 67.1059 84.9149 67.3051 84.9149H71.4183C71.6021 84.9149 71.694 84.9838 71.694 85.1217C71.694 85.183 71.671 85.2519 71.6251 85.3285L66.8455 91.9694C66.8148 92.0153 66.8148 92.0689 66.8455 92.1302L71.7859 100.586C71.8319 100.648 71.8548 100.717 71.8548 100.793C71.8548 100.931 71.7553 101 71.5561 101H67.4889C67.2897 101 67.1519 100.923 67.0753 100.77L63.9042 95.1174C63.8889 95.0715 63.8659 95.0485 63.8353 95.0485C63.8046 95.0485 63.774 95.0715 63.7434 95.1174L62.7783 96.5881C62.7476 96.6494 62.7323 96.6953 62.7323 96.726V100.655C62.7323 100.763 62.7017 100.847 62.6404 100.908C62.5791 100.969 62.4948 101 62.3876 101H58.757ZM84.6711 88.2698C84.6711 88.377 84.6404 88.4613 84.5791 88.5226C84.5179 88.5838 84.4336 88.6145 84.3264 88.6145H77.4557C77.3791 88.6145 77.3408 88.6528 77.3408 88.7294V90.8894C77.3408 90.966 77.3791 91.0043 77.4557 91.0043H81.7068C81.814 91.0043 81.8983 91.0349 81.9596 91.0962C82.0208 91.1574 82.0515 91.2417 82.0515 91.3489V94.3362C82.0515 94.4434 82.0208 94.5277 81.9596 94.5889C81.8983 94.6502 81.814 94.6809 81.7068 94.6809H77.4557C77.3791 94.6809 77.3408 94.7191 77.3408 94.7957V97.1855C77.3408 97.2621 77.3791 97.3004 77.4557 97.3004H84.3264C84.4336 97.3004 84.5179 97.3311 84.5791 97.3923C84.6404 97.4536 84.6711 97.5379 84.6711 97.6451V100.655C84.6711 100.763 84.6404 100.847 84.5791 100.908C84.5179 100.969 84.4336 101 84.3264 101H73.3655C73.2583 101 73.174 100.969 73.1128 100.908C73.0515 100.847 73.0208 100.763 73.0208 100.655V85.2596C73.0208 85.1523 73.0515 85.0681 73.1128 85.0068C73.174 84.9455 73.2583 84.9149 73.3655 84.9149H84.3264C84.4336 84.9149 84.5179 84.9455 84.5791 85.0068C84.6404 85.0681 84.6711 85.1523 84.6711 85.2596V88.2698ZM98.1438 84.9149C98.251 84.9149 98.3353 84.9455 98.3965 85.0068C98.4578 85.0681 98.4884 85.1523 98.4884 85.2596V88.2928C98.4884 88.4 98.4578 88.4843 98.3965 88.5455C98.3353 88.6068 98.251 88.6374 98.1438 88.6374H94.2833C94.2067 88.6374 94.1684 88.6757 94.1684 88.7523V100.655C94.1684 100.763 94.1378 100.847 94.0765 100.908C94.0153 100.969 93.931 101 93.8238 101H90.1931C90.0859 101 90.0016 100.969 89.9404 100.908C89.8791 100.847 89.8484 100.763 89.8484 100.655V88.7523C89.8484 88.6757 89.8101 88.6374 89.7336 88.6374H85.988C85.8808 88.6374 85.7965 88.6068 85.7353 88.5455C85.674 88.4843 85.6433 88.4 85.6433 88.2928V85.2596C85.6433 85.1523 85.674 85.0681 85.7353 85.0068C85.7965 84.9455 85.8808 84.9149 85.988 84.9149H98.1438Z" fill="#03568A"/>
<path d="M0.403011 115C0.368183 115 0.340818 114.99 0.320917 114.97C0.301015 114.95 0.291064 114.923 0.291064 114.888V109.888C0.291064 109.853 0.301015 109.826 0.320917 109.806C0.340818 109.786 0.368183 109.776 0.403011 109.776H1.58219C1.61702 109.776 1.64439 109.786 1.66429 109.806C1.68419 109.826 1.69414 109.853 1.69414 109.888V114.888C1.69414 114.923 1.68419 114.95 1.66429 114.97C1.64439 114.99 1.61702 115 1.58219 115H0.403011ZM5.60951 109.85C5.63936 109.801 5.68414 109.776 5.74385 109.776H6.9081C6.94293 109.776 6.9703 109.786 6.9902 109.806C7.0101 109.826 7.02005 109.853 7.02005 109.888V114.888C7.02005 114.923 7.0101 114.95 6.9902 114.97C6.9703 114.99 6.94293 115 6.9081 115H5.72892C5.69409 115 5.66673 114.99 5.64683 114.97C5.62692 114.95 5.61697 114.923 5.61697 114.888V112.179C5.61697 112.159 5.612 112.149 5.60205 112.149C5.5921 112.144 5.58214 112.149 5.57219 112.164L5.0647 112.992C5.03484 113.042 4.99007 113.067 4.93036 113.067H4.36316C4.30345 113.067 4.25867 113.042 4.22882 112.992L3.72133 112.164C3.71137 112.149 3.70142 112.144 3.69147 112.149C3.68152 112.149 3.67655 112.159 3.67655 112.179V114.888C3.67655 114.923 3.6666 114.95 3.64669 114.97C3.62679 114.99 3.59943 115 3.5646 115H2.38542C2.35059 115 2.32322 114.99 2.30332 114.97C2.28342 114.95 2.27347 114.923 2.27347 114.888V109.888C2.27347 109.853 2.28342 109.826 2.30332 109.806C2.32322 109.786 2.35059 109.776 2.38542 109.776H3.54967C3.60938 109.776 3.65416 109.801 3.68401 109.85L4.62437 111.365C4.6393 111.395 4.65422 111.395 4.66915 111.365L5.60951 109.85ZM9.87745 109.776C10.2307 109.776 10.5417 109.848 10.8104 109.992C11.079 110.132 11.2855 110.333 11.4298 110.597C11.5791 110.855 11.6537 111.154 11.6537 111.492C11.6537 111.826 11.5766 112.119 11.4223 112.373C11.2681 112.627 11.0517 112.823 10.773 112.963C10.4944 113.102 10.1735 113.172 9.81029 113.172H9.01919C8.99431 113.172 8.98187 113.184 8.98187 113.209V114.888C8.98187 114.923 8.97192 114.95 8.95202 114.97C8.93212 114.99 8.90475 115 8.86993 115H7.69074C7.65592 115 7.62855 114.99 7.60865 114.97C7.58875 114.95 7.5788 114.923 7.5788 114.888V109.888C7.5788 109.853 7.58875 109.826 7.60865 109.806C7.62855 109.786 7.65592 109.776 7.69074 109.776H9.87745ZM9.6461 112.052C9.83019 112.052 9.97696 112.005 10.0864 111.91C10.2009 111.811 10.2581 111.681 10.2581 111.522C10.2581 111.358 10.2009 111.226 10.0864 111.127C9.97696 111.027 9.83019 110.977 9.6461 110.977H9.01919C8.99431 110.977 8.98187 110.99 8.98187 111.015V112.015C8.98187 112.04 8.99431 112.052 9.01919 112.052H9.6461ZM14.0912 115.06C13.6882 115.06 13.33 114.983 13.0165 114.828C12.7081 114.674 12.4692 114.455 12.3001 114.172C12.1309 113.888 12.0463 113.56 12.0463 113.186V109.888C12.0463 109.853 12.0563 109.826 12.0762 109.806C12.0961 109.786 12.1234 109.776 12.1583 109.776H13.3375C13.3723 109.776 13.3996 109.786 13.4195 109.806C13.4394 109.826 13.4494 109.853 13.4494 109.888V113.186C13.4494 113.39 13.5066 113.555 13.6211 113.679C13.7405 113.798 13.8972 113.858 14.0912 113.858C14.2803 113.858 14.4321 113.796 14.5465 113.672C14.6659 113.547 14.7256 113.385 14.7256 113.186V109.888C14.7256 109.853 14.7356 109.826 14.7555 109.806C14.7754 109.786 14.8027 109.776 14.8376 109.776H16.0167C16.0516 109.776 16.0789 109.786 16.0988 109.806C16.1187 109.826 16.1287 109.853 16.1287 109.888V113.186C16.1287 113.56 16.0441 113.888 15.8749 114.172C15.7058 114.455 15.4669 114.674 15.1585 114.828C14.85 114.983 14.4942 115.06 14.0912 115.06ZM16.7943 115C16.7595 115 16.7321 114.99 16.7122 114.97C16.6923 114.95 16.6824 114.923 16.6824 114.888V109.888C16.6824 109.853 16.6923 109.826 16.7122 109.806C16.7321 109.786 16.7595 109.776 16.7943 109.776H17.9735C18.0083 109.776 18.0357 109.786 18.0556 109.806C18.0755 109.826 18.0854 109.853 18.0854 109.888V113.761C18.0854 113.786 18.0979 113.798 18.1227 113.798H20.4289C20.4637 113.798 20.4911 113.808 20.511 113.828C20.5309 113.848 20.5408 113.876 20.5408 113.91V114.888C20.5408 114.923 20.5309 114.95 20.511 114.97C20.4911 114.99 20.4637 115 20.4289 115H16.7943ZM22.9456 115.06C22.5277 115.06 22.162 114.993 21.8485 114.858C21.535 114.719 21.2913 114.522 21.1171 114.269C20.9479 114.015 20.8634 113.721 20.8634 113.388V113.283C20.8634 113.249 20.8733 113.221 20.8932 113.201C20.9131 113.181 20.9405 113.172 20.9753 113.172H22.1321C22.1669 113.172 22.1943 113.181 22.2142 113.201C22.2341 113.221 22.2441 113.249 22.2441 113.283V113.328C22.2441 113.468 22.3162 113.592 22.4605 113.701C22.6097 113.806 22.8063 113.858 23.0501 113.858C23.2342 113.858 23.366 113.821 23.4456 113.746C23.5252 113.667 23.565 113.58 23.565 113.485C23.565 113.376 23.5153 113.293 23.4158 113.239C23.3163 113.184 23.1347 113.117 22.871 113.037L22.6545 112.977C22.162 112.828 21.749 112.629 21.4156 112.38C21.0823 112.132 20.9156 111.771 20.9156 111.298C20.9156 110.985 21.0002 110.709 21.1694 110.47C21.3385 110.226 21.5699 110.039 21.8634 109.91C22.162 109.781 22.4953 109.716 22.8635 109.716C23.2516 109.716 23.6023 109.788 23.9158 109.933C24.2342 110.077 24.483 110.281 24.6621 110.544C24.8462 110.808 24.9383 111.109 24.9383 111.448V111.515C24.9383 111.55 24.9283 111.577 24.9084 111.597C24.8885 111.617 24.8611 111.627 24.8263 111.627H23.6695C23.6347 111.627 23.6073 111.617 23.5874 111.597C23.5675 111.577 23.5576 111.55 23.5576 111.515V111.507C23.5576 111.358 23.4904 111.224 23.3561 111.104C23.2217 110.98 23.0401 110.918 22.8113 110.918C22.652 110.918 22.5252 110.95 22.4306 111.015C22.3411 111.079 22.2963 111.169 22.2963 111.283C22.2963 111.373 22.3286 111.45 22.3933 111.515C22.463 111.574 22.5675 111.634 22.7068 111.694C22.8461 111.749 23.06 111.821 23.3486 111.91C23.3884 111.925 23.5625 111.98 23.871 112.074C24.1845 112.164 24.4457 112.331 24.6547 112.574C24.8636 112.813 24.9681 113.104 24.9681 113.448C24.9681 113.781 24.8835 114.07 24.7144 114.313C24.5452 114.552 24.3089 114.736 24.0054 114.866C23.7019 114.995 23.3486 115.06 22.9456 115.06ZM25.5694 115C25.5345 115 25.5072 114.99 25.4873 114.97C25.4674 114.95 25.4574 114.923 25.4574 114.888V109.888C25.4574 109.853 25.4674 109.826 25.4873 109.806C25.5072 109.786 25.5345 109.776 25.5694 109.776H26.7485C26.7834 109.776 26.8107 109.786 26.8306 109.806C26.8505 109.826 26.8605 109.853 26.8605 109.888V114.888C26.8605 114.923 26.8505 114.95 26.8306 114.97C26.8107 114.99 26.7834 115 26.7485 115H25.5694ZM29.4623 115.09C29.0494 115.09 28.6837 115.007 28.3653 114.843C28.0518 114.674 27.808 114.44 27.6339 114.142C27.4597 113.838 27.3727 113.487 27.3727 113.089V111.686C27.3727 111.298 27.4597 110.955 27.6339 110.656C27.808 110.358 28.0518 110.127 28.3653 109.962C28.6837 109.798 29.0494 109.716 29.4623 109.716C29.8803 109.716 30.246 109.798 30.5594 109.962C30.8779 110.127 31.1241 110.358 31.2983 110.656C31.4724 110.955 31.5595 111.298 31.5595 111.686V113.089C31.5595 113.487 31.4724 113.838 31.2983 114.142C31.1241 114.44 30.8779 114.674 30.5594 114.843C30.246 115.007 29.8803 115.09 29.4623 115.09ZM29.4623 113.888C29.6713 113.888 29.838 113.821 29.9624 113.686C30.0917 113.547 30.1564 113.363 30.1564 113.134V111.671C30.1564 111.443 30.0917 111.261 29.9624 111.127C29.838 110.987 29.6713 110.918 29.4623 110.918C29.2583 110.918 29.0917 110.987 28.9623 111.127C28.8379 111.261 28.7757 111.443 28.7757 111.671V113.134C28.7757 113.363 28.8379 113.547 28.9623 113.686C29.0917 113.821 29.2583 113.888 29.4623 113.888ZM35.0007 109.888C35.0007 109.853 35.0107 109.826 35.0306 109.806C35.0505 109.786 35.0778 109.776 35.1127 109.776H36.2918C36.3267 109.776 36.354 109.786 36.3739 109.806C36.3938 109.826 36.4038 109.853 36.4038 109.888V114.888C36.4038 114.923 36.3938 114.95 36.3739 114.97C36.354 114.99 36.3267 115 36.2918 115H35.1649C35.1052 115 35.0604 114.975 35.0306 114.925L33.5081 112.388C33.4981 112.373 33.4882 112.368 33.4782 112.373C33.4683 112.373 33.4633 112.383 33.4633 112.403L33.4782 114.888C33.4782 114.923 33.4683 114.95 33.4484 114.97C33.4285 114.99 33.4011 115 33.3663 115H32.1871C32.1523 115 32.1249 114.99 32.105 114.97C32.0851 114.95 32.0752 114.923 32.0752 114.888V109.888C32.0752 109.853 32.0851 109.826 32.105 109.806C32.1249 109.786 32.1523 109.776 32.1871 109.776H33.314C33.3737 109.776 33.4185 109.801 33.4484 109.85L34.9634 112.388C34.9734 112.403 34.9833 112.41 34.9933 112.41C35.0032 112.405 35.0082 112.393 35.0082 112.373L35.0007 109.888ZM40.4802 115C40.4105 115 40.3683 114.968 40.3533 114.903L40.1891 114.321C40.1792 114.301 40.1667 114.291 40.1518 114.291H38.5696C38.5547 114.291 38.5423 114.301 38.5323 114.321L38.3681 114.903C38.3532 114.968 38.3109 115 38.2413 115H36.965C36.8755 115 36.8431 114.958 36.868 114.873L38.4428 109.865C38.4627 109.806 38.5049 109.776 38.5696 109.776H40.1518C40.2165 109.776 40.2588 109.806 40.2787 109.865L41.8534 114.873C41.8584 114.883 41.8609 114.898 41.8609 114.918C41.8609 114.973 41.8261 115 41.7564 115H40.4802ZM38.8607 113.172C38.8557 113.201 38.8657 113.216 38.8905 113.216H39.8234C39.8533 113.216 39.8632 113.201 39.8533 113.172L39.3757 111.5C39.3707 111.485 39.3632 111.477 39.3533 111.477C39.3433 111.477 39.3358 111.485 39.3309 111.5L38.8607 113.172ZM45.2407 109.888C45.2407 109.853 45.2507 109.826 45.2706 109.806C45.2905 109.786 45.3178 109.776 45.3527 109.776H46.5318C46.5667 109.776 46.594 109.786 46.6139 109.806C46.6338 109.826 46.6438 109.853 46.6438 109.888V114.888C46.6438 114.923 46.6338 114.95 46.6139 114.97C46.594 114.99 46.5667 115 46.5318 115H45.4049C45.3452 115 45.3004 114.975 45.2706 114.925L43.7481 112.388C43.7381 112.373 43.7282 112.368 43.7182 112.373C43.7083 112.373 43.7033 112.383 43.7033 112.403L43.7182 114.888C43.7182 114.923 43.7083 114.95 43.6884 114.97C43.6685 114.99 43.6411 115 43.6063 115H42.4271C42.3923 115 42.3649 114.99 42.345 114.97C42.3251 114.95 42.3152 114.923 42.3152 114.888V109.888C42.3152 109.853 42.3251 109.826 42.345 109.806C42.3649 109.786 42.3923 109.776 42.4271 109.776H43.554C43.6137 109.776 43.6585 109.801 43.6884 109.85L45.2034 112.388C45.2134 112.403 45.2233 112.41 45.2333 112.41C45.2432 112.405 45.2482 112.393 45.2482 112.373L45.2407 109.888ZM47.3394 115C47.3046 115 47.2772 114.99 47.2573 114.97C47.2374 114.95 47.2274 114.923 47.2274 114.888V109.888C47.2274 109.853 47.2374 109.826 47.2573 109.806C47.2772 109.786 47.3046 109.776 47.3394 109.776H49.2574C49.6604 109.776 50.0162 109.845 50.3247 109.985C50.6381 110.124 50.8794 110.321 51.0486 110.574C51.2177 110.828 51.3023 111.122 51.3023 111.455V113.321C51.3023 113.654 51.2177 113.948 51.0486 114.201C50.8794 114.455 50.6381 114.652 50.3247 114.791C50.0162 114.93 49.6604 115 49.2574 115H47.3394ZM48.6305 113.761C48.6305 113.786 48.643 113.798 48.6678 113.798H49.3097C49.4788 113.798 49.6181 113.734 49.7276 113.604C49.8371 113.47 49.8943 113.296 49.8993 113.082V111.694C49.8993 111.48 49.8445 111.308 49.7351 111.179C49.6256 111.045 49.4813 110.977 49.3022 110.977H48.6678C48.643 110.977 48.6305 110.99 48.6305 111.015V113.761ZM53.8634 115.09C53.4505 115.09 53.0848 115.007 52.7663 114.843C52.4529 114.674 52.2091 114.44 52.0349 114.142C51.8608 113.838 51.7737 113.487 51.7737 113.089V111.686C51.7737 111.298 51.8608 110.955 52.0349 110.656C52.2091 110.358 52.4529 110.127 52.7663 109.962C53.0848 109.798 53.4505 109.716 53.8634 109.716C54.2814 109.716 54.6471 109.798 54.9605 109.962C55.2789 110.127 55.5252 110.358 55.6994 110.656C55.8735 110.955 55.9606 111.298 55.9606 111.686V113.089C55.9606 113.487 55.8735 113.838 55.6994 114.142C55.5252 114.44 55.2789 114.674 54.9605 114.843C54.6471 115.007 54.2814 115.09 53.8634 115.09ZM53.8634 113.888C54.0724 113.888 54.2391 113.821 54.3635 113.686C54.4928 113.547 54.5575 113.363 54.5575 113.134V111.671C54.5575 111.443 54.4928 111.261 54.3635 111.127C54.2391 110.987 54.0724 110.918 53.8634 110.918C53.6594 110.918 53.4928 110.987 53.3634 111.127C53.239 111.261 53.1768 111.443 53.1768 111.671V113.134C53.1768 113.363 53.239 113.547 53.3634 113.686C53.4928 113.821 53.6594 113.888 53.8634 113.888ZM59.9929 115.09C59.5799 115.09 59.2142 115.007 58.8958 114.843C58.5823 114.674 58.3385 114.44 58.1644 114.142C57.9902 113.838 57.9032 113.487 57.9032 113.089V111.686C57.9032 111.298 57.9902 110.955 58.1644 110.656C58.3385 110.358 58.5823 110.127 58.8958 109.962C59.2142 109.798 59.5799 109.716 59.9929 109.716C60.4108 109.716 60.7765 109.798 61.0899 109.962C61.4084 110.127 61.6547 110.358 61.8288 110.656C62.0029 110.955 62.09 111.298 62.09 111.686V113.089C62.09 113.487 62.0029 113.838 61.8288 114.142C61.6547 114.44 61.4084 114.674 61.0899 114.843C60.7765 115.007 60.4108 115.09 59.9929 115.09ZM59.9929 113.888C60.2018 113.888 60.3685 113.821 60.4929 113.686C60.6222 113.547 60.6869 113.363 60.6869 113.134V111.671C60.6869 111.443 60.6222 111.261 60.4929 111.127C60.3685 110.987 60.2018 110.918 59.9929 110.918C59.7889 110.918 59.6222 110.987 59.4928 111.127C59.3684 111.261 59.3062 111.443 59.3062 111.671V113.134C59.3062 113.363 59.3684 113.547 59.4928 113.686C59.6222 113.821 59.7889 113.888 59.9929 113.888ZM67.5925 115C67.5229 115 67.4806 114.968 67.4656 114.903L67.3015 114.321C67.2915 114.301 67.2791 114.291 67.2641 114.291H65.682C65.667 114.291 65.6546 114.301 65.6446 114.321L65.4804 114.903C65.4655 114.968 65.4232 115 65.3536 115H64.0774C63.9878 115 63.9555 114.958 63.9803 114.873L65.5551 109.865C65.575 109.806 65.6173 109.776 65.682 109.776H67.2641C67.3288 109.776 67.3711 109.806 67.391 109.865L68.9657 114.873C68.9707 114.883 68.9732 114.898 68.9732 114.918C68.9732 114.973 68.9384 115 68.8687 115H67.5925ZM65.973 113.172C65.968 113.201 65.978 113.216 66.0029 113.216H66.9358C66.9656 113.216 66.9756 113.201 66.9656 113.172L66.488 111.5C66.483 111.485 66.4755 111.477 66.4656 111.477C66.4556 111.477 66.4482 111.485 66.4432 111.5L65.973 113.172ZM71.2088 115.06C70.8008 115.06 70.4401 114.978 70.1266 114.813C69.8181 114.649 69.5768 114.418 69.4027 114.119C69.2335 113.821 69.1489 113.478 69.1489 113.089V111.679C69.1489 111.291 69.2335 110.95 69.4027 110.656C69.5768 110.358 69.8181 110.127 70.1266 109.962C70.4401 109.798 70.8008 109.716 71.2088 109.716C71.6068 109.716 71.9626 109.796 72.276 109.955C72.5895 110.109 72.8308 110.321 72.9999 110.589C73.1741 110.858 73.2612 111.151 73.2612 111.47V111.477C73.2612 111.512 73.2512 111.54 73.2313 111.559C73.2114 111.579 73.184 111.589 73.1492 111.589H71.9775C71.9029 111.589 71.8655 111.567 71.8655 111.522C71.8655 111.358 71.8058 111.216 71.6864 111.097C71.572 110.977 71.4128 110.918 71.2088 110.918C71.0098 110.918 70.8505 110.985 70.7311 111.119C70.6117 111.249 70.552 111.423 70.552 111.642V113.134C70.552 113.348 70.6192 113.522 70.7535 113.657C70.8928 113.791 71.0645 113.858 71.2685 113.858C71.4526 113.858 71.6018 113.808 71.7163 113.709C71.8357 113.604 71.8954 113.463 71.8954 113.283V113.186C71.8954 113.162 71.883 113.149 71.8581 113.149H71.2013C71.1665 113.149 71.1391 113.139 71.1192 113.119C71.0993 113.099 71.0894 113.072 71.0894 113.037V112.142C71.0894 112.107 71.0993 112.079 71.1192 112.06C71.1391 112.04 71.1665 112.03 71.2013 112.03H73.1492C73.184 112.03 73.2114 112.04 73.2313 112.06C73.2512 112.079 73.2612 112.107 73.2612 112.142V113.164C73.2612 113.532 73.1741 113.861 72.9999 114.149C72.8308 114.438 72.5895 114.662 72.276 114.821C71.9675 114.98 71.6118 115.06 71.2088 115.06ZM76.525 115C76.4603 115 76.418 114.973 76.3981 114.918L75.5772 113.022C75.5672 113.002 75.5523 112.992 75.5324 112.992H75.219C75.1941 112.992 75.1816 113.005 75.1816 113.03V114.888C75.1816 114.923 75.1717 114.95 75.1518 114.97C75.1319 114.99 75.1045 115 75.0697 115H73.8905C73.8557 115 73.8283 114.99 73.8084 114.97C73.7885 114.95 73.7786 114.923 73.7786 114.888V109.888C73.7786 109.853 73.7885 109.826 73.8084 109.806C73.8283 109.786 73.8557 109.776 73.8905 109.776H76.1518C76.4902 109.776 76.7862 109.845 77.04 109.985C77.2987 110.124 77.4977 110.321 77.637 110.574C77.7813 110.823 77.8535 111.112 77.8535 111.44C77.8535 111.768 77.7714 112.057 77.6072 112.306C77.448 112.55 77.2265 112.729 76.9429 112.843C76.9181 112.853 76.9106 112.871 76.9206 112.895L77.8684 114.866C77.8783 114.896 77.8833 114.913 77.8833 114.918C77.8833 114.943 77.8734 114.963 77.8535 114.978C77.8336 114.993 77.8087 115 77.7788 115H76.525ZM75.219 110.977C75.1941 110.977 75.1816 110.99 75.1816 111.015V111.888C75.1816 111.913 75.1941 111.925 75.219 111.925H75.9205C76.0797 111.925 76.2091 111.883 76.3086 111.798C76.4081 111.709 76.4578 111.594 76.4578 111.455C76.4578 111.311 76.4081 111.196 76.3086 111.112C76.2091 111.022 76.0797 110.977 75.9205 110.977H75.219ZM80.3927 115.09C79.9797 115.09 79.614 115.007 79.2956 114.843C78.9821 114.674 78.7383 114.44 78.5642 114.142C78.3901 113.838 78.303 113.487 78.303 113.089V111.686C78.303 111.298 78.3901 110.955 78.5642 110.656C78.7383 110.358 78.9821 110.127 79.2956 109.962C79.614 109.798 79.9797 109.716 80.3927 109.716C80.8106 109.716 81.1763 109.798 81.4898 109.962C81.8082 110.127 82.0545 110.358 82.2286 110.656C82.4028 110.955 82.4898 111.298 82.4898 111.686V113.089C82.4898 113.487 82.4028 113.838 82.2286 114.142C82.0545 114.44 81.8082 114.674 81.4898 114.843C81.1763 115.007 80.8106 115.09 80.3927 115.09ZM80.3927 113.888C80.6017 113.888 80.7683 113.821 80.8927 113.686C81.0221 113.547 81.0868 113.363 81.0868 113.134V111.671C81.0868 111.443 81.0221 111.261 80.8927 111.127C80.7683 110.987 80.6017 110.918 80.3927 110.918C80.1887 110.918 80.022 110.987 79.8927 111.127C79.7683 111.261 79.7061 111.443 79.7061 111.671V113.134C79.7061 113.363 79.7683 113.547 79.8927 113.686C80.022 113.821 80.1887 113.888 80.3927 113.888ZM87.4251 109.888C87.4251 109.853 87.4351 109.826 87.455 109.806C87.4749 109.786 87.5023 109.776 87.5371 109.776H88.7163C88.7511 109.776 88.7785 109.786 88.7984 109.806C88.8183 109.826 88.8282 109.853 88.8282 109.888V114.888C88.8282 114.923 88.8183 114.95 88.7984 114.97C88.7785 114.99 88.7511 115 88.7163 115H87.5893C87.5296 115 87.4849 114.975 87.455 114.925L85.9325 112.388C85.9226 112.373 85.9126 112.368 85.9027 112.373C85.8927 112.373 85.8877 112.383 85.8877 112.403L85.9027 114.888C85.9027 114.923 85.8927 114.95 85.8728 114.97C85.8529 114.99 85.8255 115 85.7907 115H84.6115C84.5767 115 84.5493 114.99 84.5294 114.97C84.5095 114.95 84.4996 114.923 84.4996 114.888V109.888C84.4996 109.853 84.5095 109.826 84.5294 109.806C84.5493 109.786 84.5767 109.776 84.6115 109.776H85.7385C85.7982 109.776 85.843 109.801 85.8728 109.85L87.3878 112.388C87.3978 112.403 87.4077 112.41 87.4177 112.41C87.4276 112.405 87.4326 112.393 87.4326 112.373L87.4251 109.888ZM93.1957 110.865C93.1957 110.9 93.1858 110.928 93.1659 110.947C93.146 110.967 93.1186 110.977 93.0838 110.977H90.8523C90.8274 110.977 90.815 110.99 90.815 111.015V111.716C90.815 111.741 90.8274 111.754 90.8523 111.754H92.233C92.2678 111.754 92.2951 111.763 92.3151 111.783C92.335 111.803 92.3449 111.831 92.3449 111.865V112.836C92.3449 112.871 92.335 112.898 92.3151 112.918C92.2951 112.938 92.2678 112.948 92.233 112.948H90.8523C90.8274 112.948 90.815 112.96 90.815 112.985V113.761C90.815 113.786 90.8274 113.798 90.8523 113.798H93.0838C93.1186 113.798 93.146 113.808 93.1659 113.828C93.1858 113.848 93.1957 113.876 93.1957 113.91V114.888C93.1957 114.923 93.1858 114.95 93.1659 114.97C93.146 114.99 93.1186 115 93.0838 115H89.5238C89.489 115 89.4616 114.99 89.4417 114.97C89.4218 114.95 89.4119 114.923 89.4119 114.888V109.888C89.4119 109.853 89.4218 109.826 89.4417 109.806C89.4616 109.786 89.489 109.776 89.5238 109.776H93.0838C93.1186 109.776 93.146 109.786 93.1659 109.806C93.1858 109.826 93.1957 109.853 93.1957 109.888V110.865ZM95.6609 115.06C95.2529 115.06 94.8922 114.978 94.5787 114.813C94.2702 114.649 94.0289 114.418 93.8548 114.119C93.6856 113.821 93.601 113.478 93.601 113.089V111.679C93.601 111.291 93.6856 110.95 93.8548 110.656C94.0289 110.358 94.2702 110.127 94.5787 109.962C94.8922 109.798 95.2529 109.716 95.6609 109.716C96.0589 109.716 96.4147 109.796 96.7281 109.955C97.0416 110.109 97.2829 110.321 97.452 110.589C97.6262 110.858 97.7133 111.151 97.7133 111.47V111.477C97.7133 111.512 97.7033 111.54 97.6834 111.559C97.6635 111.579 97.6361 111.589 97.6013 111.589H96.4296C96.355 111.589 96.3176 111.567 96.3176 111.522C96.3176 111.358 96.2579 111.216 96.1385 111.097C96.0241 110.977 95.8649 110.918 95.6609 110.918C95.4619 110.918 95.3027 110.985 95.1832 111.119C95.0638 111.249 95.0041 111.423 95.0041 111.642V113.134C95.0041 113.348 95.0713 113.522 95.2056 113.657C95.3449 113.791 95.5166 113.858 95.7206 113.858C95.9047 113.858 96.0539 113.808 96.1684 113.709C96.2878 113.604 96.3475 113.463 96.3475 113.283V113.186C96.3475 113.162 96.3351 113.149 96.3102 113.149H95.6534C95.6186 113.149 95.5912 113.139 95.5713 113.119C95.5514 113.099 95.5415 113.072 95.5415 113.037V112.142C95.5415 112.107 95.5514 112.079 95.5713 112.06C95.5912 112.04 95.6186 112.03 95.6534 112.03H97.6013C97.6361 112.03 97.6635 112.04 97.6834 112.06C97.7033 112.079 97.7133 112.107 97.7133 112.142V113.164C97.7133 113.532 97.6262 113.861 97.452 114.149C97.2829 114.438 97.0416 114.662 96.7281 114.821C96.4196 114.98 96.0639 115.06 95.6609 115.06ZM100.253 115.09C99.8402 115.09 99.4745 115.007 99.1561 114.843C98.8426 114.674 98.5988 114.44 98.4247 114.142C98.2506 113.838 98.1635 113.487 98.1635 113.089V111.686C98.1635 111.298 98.2506 110.955 98.4247 110.656C98.5988 110.358 98.8426 110.127 99.1561 109.962C99.4745 109.798 99.8402 109.716 100.253 109.716C100.671 109.716 101.037 109.798 101.35 109.962C101.669 110.127 101.915 110.358 102.089 110.656C102.263 110.955 102.35 111.298 102.35 111.686V113.089C102.35 113.487 102.263 113.838 102.089 114.142C101.915 114.44 101.669 114.674 101.35 114.843C101.037 115.007 100.671 115.09 100.253 115.09ZM100.253 113.888C100.462 113.888 100.629 113.821 100.753 113.686C100.883 113.547 100.947 113.363 100.947 113.134V111.671C100.947 111.443 100.883 111.261 100.753 111.127C100.629 110.987 100.462 110.918 100.253 110.918C100.049 110.918 99.8825 110.987 99.7531 111.127C99.6288 111.261 99.5666 111.443 99.5666 111.671V113.134C99.5666 113.363 99.6288 113.547 99.7531 113.686C99.8825 113.821 100.049 113.888 100.253 113.888ZM99.7382 109.335C99.6984 109.335 99.6686 109.323 99.6487 109.298C99.6337 109.268 99.6362 109.236 99.6561 109.201L100.022 108.515C100.047 108.46 100.091 108.432 100.156 108.432H101.164C101.223 108.432 101.253 108.455 101.253 108.5C101.253 108.519 101.246 108.542 101.231 108.567L100.708 109.268C100.679 109.313 100.634 109.335 100.574 109.335H99.7382ZM104.859 115.06C104.451 115.06 104.09 114.98 103.776 114.821C103.468 114.662 103.227 114.438 103.053 114.149C102.883 113.856 102.799 113.517 102.799 113.134V111.627C102.799 111.249 102.883 110.915 103.053 110.627C103.227 110.338 103.468 110.114 103.776 109.955C104.09 109.796 104.451 109.716 104.859 109.716C105.267 109.716 105.625 109.791 105.933 109.94C106.247 110.089 106.488 110.301 106.657 110.574C106.831 110.843 106.918 111.156 106.918 111.515C106.918 111.559 106.881 111.587 106.807 111.597L105.627 111.671H105.605C105.545 111.671 105.515 111.644 105.515 111.589C105.515 111.385 105.456 111.224 105.336 111.104C105.217 110.98 105.058 110.918 104.859 110.918C104.66 110.918 104.5 110.98 104.381 111.104C104.262 111.224 104.202 111.385 104.202 111.589V113.194C104.202 113.393 104.262 113.555 104.381 113.679C104.5 113.798 104.66 113.858 104.859 113.858C105.058 113.858 105.217 113.798 105.336 113.679C105.456 113.555 105.515 113.393 105.515 113.194C105.515 113.164 105.525 113.142 105.545 113.127C105.565 113.112 105.593 113.107 105.627 113.112L106.807 113.172C106.881 113.176 106.918 113.201 106.918 113.246C106.918 113.604 106.831 113.92 106.657 114.194C106.488 114.468 106.247 114.682 105.933 114.836C105.625 114.985 105.267 115.06 104.859 115.06ZM107.526 115C107.491 115 107.464 114.99 107.444 114.97C107.424 114.95 107.414 114.923 107.414 114.888V109.888C107.414 109.853 107.424 109.826 107.444 109.806C107.464 109.786 107.491 109.776 107.526 109.776H108.705C108.74 109.776 108.767 109.786 108.787 109.806C108.807 109.826 108.817 109.853 108.817 109.888V114.888C108.817 114.923 108.807 114.95 108.787 114.97C108.767 114.99 108.74 115 108.705 115H107.526ZM111.419 115.09C111.006 115.09 110.64 115.007 110.322 114.843C110.008 114.674 109.764 114.44 109.59 114.142C109.416 113.838 109.329 113.487 109.329 113.089V111.686C109.329 111.298 109.416 110.955 109.59 110.656C109.764 110.358 110.008 110.127 110.322 109.962C110.64 109.798 111.006 109.716 111.419 109.716C111.837 109.716 112.202 109.798 112.516 109.962C112.834 110.127 113.081 110.358 113.255 110.656C113.429 110.955 113.516 111.298 113.516 111.686V113.089C113.516 113.487 113.429 113.838 113.255 114.142C113.081 114.44 112.834 114.674 112.516 114.843C112.202 115.007 111.837 115.09 111.419 115.09ZM111.419 113.888C111.628 113.888 111.794 113.821 111.919 113.686C112.048 113.547 112.113 113.363 112.113 113.134V111.671C112.113 111.443 112.048 111.261 111.919 111.127C111.794 110.987 111.628 110.918 111.419 110.918C111.215 110.918 111.048 110.987 110.919 111.127C110.794 111.261 110.732 111.443 110.732 111.671V113.134C110.732 113.363 110.794 113.547 110.919 113.686C111.048 113.821 111.215 113.888 111.419 113.888Z" fill="#29292B"/>
</svg>
