<svg width="149" height="215" viewBox="0 0 149 215" fill="none" xmlns="http://www.w3.org/2000/svg">
<path fill-rule="evenodd" clip-rule="evenodd" d="M46.3381 40.8728C51.7989 36.1811 58.7017 33.5012 65.8977 33.2789C68.0845 24.7849 72.7006 17.1129 79.1808 11.2021C85.6611 5.29137 93.7242 1.39845 102.383 0C105.507 8.20195 106.17 17.1372 104.29 25.7102C102.411 34.2833 98.0706 42.1218 91.8019 48.2646C95.2063 54.6044 96.3379 61.9186 95.0085 68.9907C93.6791 76.0629 89.9688 82.4669 84.4947 87.1378C86.8658 57.6391 60.2359 42.2737 35.8842 59.0651C37.188 51.9847 40.8773 45.5644 46.3381 40.8728ZM84.9285 17.1136C83.5278 17.8055 82.3638 18.8973 81.5837 20.2509C80.5382 22.0648 80.2559 24.2197 80.7986 26.2418C81.3413 28.2639 82.6647 29.9877 84.4779 31.0345C85.8309 31.8155 87.3852 32.1778 88.9441 32.0754C90.503 31.973 91.9966 31.4106 93.2358 30.4592C94.475 29.5079 95.4043 28.2104 95.906 26.7308C96.4077 25.2513 96.4593 23.6562 96.0543 22.1473C95.6494 20.6384 94.806 19.2835 93.6309 18.254C92.4558 17.2245 91.0017 16.5667 89.4527 16.3637C87.9037 16.1607 86.3292 16.4216 84.9285 17.1136ZM52.1348 68.1768C52.0631 68.6038 51.9055 69.0118 51.6714 69.3761L40.1622 89.3738C39.7381 90.109 39.0394 90.6455 38.2197 90.8655C37.4 91.0855 36.5265 90.9708 35.7914 90.5467C35.0562 90.1226 34.5197 89.4239 34.2997 88.6042C34.0797 87.7845 34.1944 86.911 34.6185 86.1759L37.3945 81.3326C30.5562 73.5313 26.395 63.7458 25.5201 53.4087C24.6452 43.0716 27.1026 32.7259 32.5326 23.8863C37.9625 15.0468 46.0797 8.17775 55.6957 4.28493C65.3117 0.392118 75.9214 -0.319986 85.9713 2.25288C84.5005 3.07227 83.0753 3.97081 81.7018 4.94456C72.6207 3.35406 63.2703 4.58802 54.9127 8.47985C46.5551 12.3717 39.5927 18.734 34.9654 26.708C30.3382 34.682 28.2688 43.8836 29.0367 53.0709C29.8045 62.2582 33.3726 70.9887 39.2593 78.084L46.1362 66.1866C46.334 65.8014 46.6079 65.4604 46.9414 65.1843C47.2749 64.9081 47.661 64.7025 48.0762 64.58C48.4915 64.4575 48.9274 64.4206 49.3574 64.4716C49.7873 64.5226 50.2025 64.6603 50.5776 64.8765C50.9528 65.0926 51.2802 65.3827 51.5399 65.7292C51.7996 66.0757 51.9862 66.4712 52.0885 66.892C52.1908 67.3127 52.2065 67.7498 52.1348 68.1768ZM108.635 15.3316C114.47 21.3008 118.667 28.6738 120.82 36.7385H120.794C122.933 44.714 123.003 53.1029 120.997 61.1129C118.992 69.1228 114.977 76.4892 109.333 82.5161C103.689 88.543 96.6009 93.0313 88.7395 95.5571C80.8781 98.0828 72.5026 98.5626 64.4042 96.9511L61.6197 101.794C61.162 102.453 60.4734 102.916 59.6905 103.091C58.9076 103.266 58.0876 103.14 57.3931 102.738C56.6986 102.337 56.1803 101.689 55.9411 100.924C55.7018 100.158 55.759 99.3304 56.1013 98.6049L67.6527 78.5987C67.8627 78.2358 68.1421 77.9179 68.475 77.6629C68.8079 77.408 69.1877 77.2212 69.5928 77.113C69.9979 77.0049 70.4203 76.9776 70.8359 77.0328C71.2515 77.0879 71.6522 77.2243 72.0151 77.4343C72.378 77.6443 72.696 77.9237 72.9509 78.2566C73.2058 78.5894 73.3927 78.9692 73.5008 79.3743C73.6089 79.7794 73.6362 80.2018 73.5811 80.6175C73.526 81.0331 73.3895 81.4338 73.1796 81.7967L66.3111 93.7194C75.3978 95.2652 84.74 93.9872 93.0776 90.0576C101.415 86.128 108.347 79.7359 112.938 71.7436C117.53 63.7512 119.559 54.543 118.754 45.361C117.948 36.1791 114.346 27.465 108.433 20.3943C108.59 18.7115 108.657 17.0216 108.635 15.3316ZM64.4801 65.6297C63.7443 65.2107 62.8727 65.0998 62.0554 65.3211C61.2381 65.5424 60.5416 66.078 60.1177 66.811L40.0103 101.626C39.5862 102.365 39.4733 103.243 39.6964 104.066C39.9196 104.889 40.4604 105.589 41.2 106.013C41.9397 106.437 42.8174 106.55 43.6403 106.327C44.4631 106.104 45.1637 105.563 45.5877 104.824L65.6614 70.0343C65.8744 69.6679 66.0127 69.2629 66.0686 68.8428C66.1244 68.4227 66.0967 67.9957 65.9869 67.5863C65.8771 67.177 65.6875 66.7934 65.4289 66.4576C65.1703 66.1218 64.8478 65.8404 64.4801 65.6297Z" fill="white"/>
<path d="M43.859 142.393C43.4825 142.393 43.2539 142.219 43.1732 141.869L42.2858 138.723C42.232 138.615 42.1647 138.561 42.0841 138.561H33.5323C33.4517 138.561 33.3844 138.615 33.3306 138.723L32.4432 141.869C32.3625 142.219 32.1339 142.393 31.7575 142.393H24.8596C24.3755 142.393 24.2007 142.165 24.3352 141.708L32.8466 114.641C32.9542 114.318 33.1827 114.157 33.5323 114.157H42.0841C42.4337 114.157 42.6622 114.318 42.7698 114.641L51.2812 141.708C51.3081 141.761 51.3215 141.842 51.3215 141.95C51.3215 142.246 51.1333 142.393 50.7568 142.393H43.859ZM35.1055 132.511C35.0786 132.672 35.1324 132.753 35.2669 132.753H40.3092C40.4705 132.753 40.5243 132.672 40.4705 132.511L37.8889 123.475C37.862 123.394 37.8216 123.354 37.7679 123.354C37.7141 123.354 37.6737 123.394 37.6468 123.475L35.1055 132.511ZM63.4048 142.716C61.1996 142.716 59.2499 142.272 57.5557 141.385C55.8884 140.498 54.5841 139.247 53.6429 137.634C52.7286 136.02 52.2714 134.164 52.2714 132.067V124.443C52.2714 122.345 52.7286 120.503 53.6429 118.917C54.5841 117.303 55.8884 116.053 57.5557 115.165C59.2499 114.278 61.1996 113.834 63.4048 113.834C65.5561 113.834 67.4789 114.264 69.1731 115.125C70.8674 115.958 72.1716 117.101 73.086 118.553C74.0272 120.006 74.4978 121.592 74.4978 123.313V123.354C74.4978 123.542 74.444 123.69 74.3365 123.797C74.2289 123.905 74.081 123.959 73.8927 123.959H67.5596C67.1562 123.959 66.9545 123.838 66.9545 123.596C66.9545 122.708 66.6318 121.942 65.9864 121.296C65.3679 120.651 64.5073 120.328 63.4048 120.328C62.3291 120.328 61.4685 120.691 60.8231 121.417C60.1777 122.117 59.855 123.058 59.855 124.241V132.309C59.855 133.465 60.218 134.406 60.9441 135.133C61.6971 135.859 62.6249 136.222 63.7275 136.222C64.7225 136.222 65.5292 135.953 66.1478 135.415C66.7932 134.85 67.1159 134.084 67.1159 133.116V132.591C67.1159 132.457 67.0487 132.39 66.9142 132.39H63.3644C63.1762 132.39 63.0283 132.336 62.9207 132.228C62.8131 132.121 62.7594 131.973 62.7594 131.784V126.944C62.7594 126.756 62.8131 126.608 62.9207 126.5C63.0283 126.393 63.1762 126.339 63.3644 126.339H73.8927C74.081 126.339 74.2289 126.393 74.3365 126.5C74.444 126.608 74.4978 126.756 74.4978 126.944V132.47C74.4978 134.46 74.0272 136.235 73.086 137.795C72.1716 139.355 70.8674 140.565 69.1731 141.425C67.5058 142.286 65.583 142.716 63.4048 142.716ZM92.1389 142.393C91.7893 142.393 91.5607 142.246 91.4531 141.95L87.0159 131.704C86.9621 131.596 86.8815 131.542 86.7739 131.542H85.0797C84.9452 131.542 84.878 131.61 84.878 131.744V141.788C84.878 141.977 84.8242 142.125 84.7166 142.232C84.6091 142.34 84.4612 142.393 84.2729 142.393H77.8995C77.7112 142.393 77.5633 142.34 77.4557 142.232C77.3482 142.125 77.2944 141.977 77.2944 141.788V114.762C77.2944 114.573 77.3482 114.426 77.4557 114.318C77.5633 114.21 77.7112 114.157 77.8995 114.157H90.122C91.9506 114.157 93.5507 114.533 94.9222 115.286C96.3206 116.039 97.3963 117.101 98.1493 118.473C98.9292 119.817 99.3191 121.377 99.3191 123.152C99.3191 124.927 98.8754 126.487 97.988 127.831C97.1274 129.149 95.9307 130.117 94.3978 130.736C94.2634 130.789 94.223 130.884 94.2768 131.018L99.3998 141.667C99.4536 141.829 99.4805 141.923 99.4805 141.95C99.4805 142.084 99.4267 142.192 99.3191 142.272C99.2115 142.353 99.0771 142.393 98.9157 142.393H92.1389ZM85.0797 120.651C84.9452 120.651 84.878 120.718 84.878 120.853V125.572C84.878 125.707 84.9452 125.774 85.0797 125.774H88.8715C89.732 125.774 90.4312 125.545 90.9691 125.088C91.5069 124.604 91.7758 123.986 91.7758 123.233C91.7758 122.453 91.5069 121.834 90.9691 121.377C90.4312 120.893 89.732 120.651 88.8715 120.651H85.0797ZM113.044 142.877C110.812 142.877 108.835 142.434 107.114 141.546C105.42 140.632 104.102 139.368 103.161 137.755C102.219 136.114 101.749 134.218 101.749 132.067V124.483C101.749 122.386 102.219 120.53 103.161 118.917C104.102 117.303 105.42 116.053 107.114 115.165C108.835 114.278 110.812 113.834 113.044 113.834C115.303 113.834 117.279 114.278 118.973 115.165C120.694 116.053 122.026 117.303 122.967 118.917C123.908 120.53 124.379 122.386 124.379 124.483V132.067C124.379 134.218 123.908 136.114 122.967 137.755C122.026 139.368 120.694 140.632 118.973 141.546C117.279 142.434 115.303 142.877 113.044 142.877ZM113.044 136.383C114.173 136.383 115.074 136.02 115.746 135.294C116.445 134.541 116.795 133.546 116.795 132.309V124.403C116.795 123.165 116.445 122.184 115.746 121.458C115.074 120.705 114.173 120.328 113.044 120.328C111.941 120.328 111.04 120.705 110.341 121.458C109.669 122.184 109.332 123.165 109.332 124.403V132.309C109.332 133.546 109.669 134.541 110.341 135.294C111.04 136.02 111.941 136.383 113.044 136.383ZM17.3712 177.393C17.0216 177.393 16.793 177.246 16.6854 176.95L12.2482 166.704C12.1944 166.596 12.1137 166.542 12.0062 166.542H10.312C10.1775 166.542 10.1103 166.61 10.1103 166.744V176.788C10.1103 176.977 10.0565 177.125 9.94892 177.232C9.84135 177.34 9.69344 177.393 9.5052 177.393H3.13174C2.94349 177.393 2.79559 177.34 2.68802 177.232C2.58045 177.125 2.52666 176.977 2.52666 176.788V149.762C2.52666 149.573 2.58045 149.426 2.68802 149.318C2.79559 149.21 2.94349 149.157 3.13174 149.157H15.3543C17.1829 149.157 18.783 149.533 20.1545 150.286C21.5529 151.039 22.6286 152.101 23.3816 153.473C24.1615 154.817 24.5514 156.377 24.5514 158.152C24.5514 159.927 24.1077 161.487 23.2202 162.831C22.3597 164.149 21.163 165.117 19.6301 165.736C19.4957 165.789 19.4553 165.884 19.5091 166.018L24.6321 176.667C24.6859 176.829 24.7127 176.923 24.7127 176.95C24.7127 177.084 24.659 177.192 24.5514 177.272C24.4438 177.353 24.3094 177.393 24.148 177.393H17.3712ZM10.312 155.651C10.1775 155.651 10.1103 155.718 10.1103 155.853V160.572C10.1103 160.707 10.1775 160.774 10.312 160.774H14.1038C14.9643 160.774 15.6635 160.545 16.2014 160.088C16.7392 159.604 17.0081 158.986 17.0081 158.233C17.0081 157.453 16.7392 156.834 16.2014 156.377C15.6635 155.893 14.9643 155.651 14.1038 155.651H10.312ZM38.2759 177.877C36.0438 177.877 34.0672 177.434 32.3461 176.546C30.6519 175.632 29.3342 174.368 28.393 172.755C27.4518 171.114 26.9811 169.218 26.9811 167.067V159.483C26.9811 157.386 27.4518 155.53 28.393 153.917C29.3342 152.303 30.6519 151.053 32.3461 150.165C34.0672 149.278 36.0438 148.834 38.2759 148.834C40.5348 148.834 42.5114 149.278 44.2056 150.165C45.9267 151.053 47.2579 152.303 48.1991 153.917C49.1403 155.53 49.611 157.386 49.611 159.483V167.067C49.611 169.218 49.1403 171.114 48.1991 172.755C47.2579 174.368 45.9267 175.632 44.2056 176.546C42.5114 177.434 40.5348 177.877 38.2759 177.877ZM38.2759 171.383C39.4054 171.383 40.3062 171.02 40.9785 170.294C41.6777 169.541 42.0273 168.546 42.0273 167.309V159.403C42.0273 158.165 41.6777 157.184 40.9785 156.458C40.3062 155.705 39.4054 155.328 38.2759 155.328C37.1733 155.328 36.2724 155.705 35.5732 156.458C34.9009 157.184 34.5648 158.165 34.5648 159.403V167.309C34.5648 168.546 34.9009 169.541 35.5732 170.294C36.2724 171.02 37.1733 171.383 38.2759 171.383ZM63.1684 177.716C60.9633 177.716 59.0136 177.286 57.3194 176.425C55.652 175.565 54.3478 174.355 53.4065 172.795C52.4922 171.208 52.035 169.38 52.035 167.309V159.161C52.035 157.117 52.4922 155.315 53.4065 153.755C54.3478 152.195 55.652 150.985 57.3194 150.125C59.0136 149.264 60.9633 148.834 63.1684 148.834C65.3736 148.834 67.3098 149.237 68.9771 150.044C70.6713 150.851 71.9756 151.994 72.89 153.473C73.8312 154.925 74.3018 156.619 74.3018 158.555C74.3018 158.797 74.1001 158.945 73.6967 158.999L67.3233 159.403H67.2022C66.8795 159.403 66.7182 159.255 66.7182 158.959C66.7182 157.856 66.3955 156.982 65.7501 156.337C65.1047 155.665 64.2441 155.328 63.1684 155.328C62.0927 155.328 61.2322 155.665 60.5868 156.337C59.9413 156.982 59.6186 157.856 59.6186 158.959V167.632C59.6186 168.707 59.9413 169.581 60.5868 170.254C61.2322 170.899 62.0927 171.222 63.1684 171.222C64.2441 171.222 65.1047 170.899 65.7501 170.254C66.3955 169.581 66.7182 168.707 66.7182 167.632C66.7182 167.47 66.772 167.349 66.8795 167.269C66.9871 167.188 67.135 167.161 67.3233 167.188L73.6967 167.511C74.1001 167.537 74.3018 167.672 74.3018 167.914C74.3018 169.85 73.8312 171.558 72.89 173.037C71.9756 174.516 70.6713 175.672 68.9771 176.506C67.3098 177.313 65.3736 177.716 63.1684 177.716ZM77.5843 177.393C77.3961 177.393 77.2482 177.34 77.1406 177.232C77.033 177.125 76.9793 176.977 76.9793 176.788V149.762C76.9793 149.573 77.033 149.426 77.1406 149.318C77.2482 149.21 77.3961 149.157 77.5843 149.157H83.9578C84.146 149.157 84.2939 149.21 84.4015 149.318C84.5091 149.426 84.5629 149.573 84.5629 149.762V159.403C84.5629 159.483 84.5898 159.537 84.6435 159.564C84.6973 159.591 84.7511 159.564 84.8049 159.483L91.8238 149.52C91.9851 149.278 92.2406 149.157 92.5902 149.157H99.8108C100.133 149.157 100.295 149.278 100.295 149.52C100.295 149.627 100.254 149.748 100.174 149.883L91.7834 161.54C91.7296 161.621 91.7296 161.715 91.7834 161.823L100.456 176.667C100.537 176.775 100.577 176.896 100.577 177.03C100.577 177.272 100.402 177.393 100.053 177.393H92.9129C92.5633 177.393 92.3213 177.259 92.1868 176.99L86.6201 167.067C86.5932 166.986 86.5529 166.946 86.4991 166.946C86.4453 166.946 86.3915 166.986 86.3377 167.067L84.6435 169.648C84.5898 169.756 84.5629 169.837 84.5629 169.891V176.788C84.5629 176.977 84.5091 177.125 84.4015 177.232C84.2939 177.34 84.146 177.393 83.9578 177.393H77.5843ZM123.076 155.046C123.076 155.234 123.022 155.382 122.914 155.49C122.807 155.597 122.659 155.651 122.47 155.651H110.409C110.275 155.651 110.208 155.718 110.208 155.853V159.645C110.208 159.779 110.275 159.846 110.409 159.846H117.872C118.06 159.846 118.208 159.9 118.316 160.008C118.423 160.115 118.477 160.263 118.477 160.451V165.695C118.477 165.884 118.423 166.031 118.316 166.139C118.208 166.247 118.06 166.3 117.872 166.3H110.409C110.275 166.3 110.208 166.368 110.208 166.502V170.697C110.208 170.832 110.275 170.899 110.409 170.899H122.47C122.659 170.899 122.807 170.953 122.914 171.06C123.022 171.168 123.076 171.316 123.076 171.504V176.788C123.076 176.977 123.022 177.125 122.914 177.232C122.807 177.34 122.659 177.393 122.47 177.393H103.229C103.041 177.393 102.893 177.34 102.785 177.232C102.678 177.125 102.624 176.977 102.624 176.788V149.762C102.624 149.573 102.678 149.426 102.785 149.318C102.893 149.21 103.041 149.157 103.229 149.157H122.47C122.659 149.157 122.807 149.21 122.914 149.318C123.022 149.426 123.076 149.573 123.076 149.762V155.046ZM146.726 149.157C146.915 149.157 147.063 149.21 147.17 149.318C147.278 149.426 147.332 149.573 147.332 149.762V155.086C147.332 155.275 147.278 155.422 147.17 155.53C147.063 155.638 146.915 155.691 146.726 155.691H139.95C139.815 155.691 139.748 155.759 139.748 155.893V176.788C139.748 176.977 139.694 177.125 139.587 177.232C139.479 177.34 139.331 177.393 139.143 177.393H132.769C132.581 177.393 132.433 177.34 132.326 177.232C132.218 177.125 132.164 176.977 132.164 176.788V155.893C132.164 155.759 132.097 155.691 131.963 155.691H125.387C125.199 155.691 125.051 155.638 124.944 155.53C124.836 155.422 124.782 155.275 124.782 155.086V149.762C124.782 149.573 124.836 149.426 124.944 149.318C125.051 149.21 125.199 149.157 125.387 149.157H146.726Z" fill="white"/>
</svg>
