<svg width="119" height="131" viewBox="0 0 119 131" fill="none" xmlns="http://www.w3.org/2000/svg">
<path fill-rule="evenodd" clip-rule="evenodd" d="M25.7242 50.089C32.4163 44.3394 40.8757 41.0552 49.6942 40.7828C52.3741 30.3736 58.0311 20.9716 65.9725 13.728C73.914 6.4845 83.7952 1.71378 94.4065 0C98.2346 10.0514 99.0469 21.0013 96.7436 31.5075C94.4403 42.0137 89.1216 51.6196 81.4395 59.1475C85.6115 66.9169 86.9982 75.8803 85.3691 84.5471C83.7399 93.214 79.1931 101.062 72.4846 106.786C75.3903 70.6358 42.7558 51.8058 12.9132 72.3833C14.5109 63.7065 19.0321 55.8385 25.7242 50.089ZM73.0162 20.9724C71.2997 21.8204 69.8732 23.1584 68.9172 24.8171C67.636 27.0401 67.2899 29.6809 67.955 32.1589C68.6201 34.6369 70.2419 36.7495 72.464 38.0323C74.1221 38.9895 76.0268 39.4334 77.9373 39.3079C79.8477 39.1824 81.678 38.4932 83.1967 37.3273C84.7153 36.1615 85.8541 34.5714 86.4689 32.7582C87.0838 30.9451 87.147 28.9903 86.6508 27.1412C86.1545 25.2921 85.1209 23.6317 83.6809 22.37C82.2408 21.1084 80.4589 20.3022 78.5606 20.0534C76.6622 19.8046 74.7328 20.1245 73.0162 20.9724ZM32.8281 83.5497C32.7402 84.073 32.547 84.573 32.2602 85.0194L18.1557 109.526C17.6361 110.427 16.7798 111.085 15.7752 111.354C14.7707 111.624 13.7003 111.483 12.7994 110.964C11.8985 110.444 11.2409 109.588 10.9714 108.583C10.7018 107.579 10.8424 106.508 11.3621 105.607L14.7641 99.6718C6.38382 90.1116 1.28429 78.1196 0.212127 65.4516C-0.860032 52.7836 2.1515 40.1051 8.80578 29.2724C15.4601 18.4396 25.4076 10.0217 37.1918 5.25114C48.9761 0.48056 61.9781 -0.392114 74.2942 2.76089C72.4918 3.76504 70.7451 4.86619 69.0619 6.05951C57.9332 4.11038 46.4744 5.62257 36.2323 10.392C25.9901 15.1613 17.4579 22.9583 11.7872 32.7302C6.11661 42.5022 3.58062 53.7788 4.5216 65.0376C5.46259 76.2965 9.83525 86.9956 17.0493 95.6908L25.4768 81.1107C25.7192 80.6387 26.0549 80.2208 26.4636 79.8824C26.8722 79.5439 27.3454 79.292 27.8543 79.1419C28.3633 78.9918 28.8974 78.9466 29.4243 79.009C29.9512 79.0714 30.46 79.2402 30.9198 79.5052C31.3795 79.7701 31.7807 80.1256 32.0989 80.5502C32.4172 80.9747 32.6459 81.4595 32.7713 81.9751C32.8966 82.4907 32.9159 83.0264 32.8281 83.5497ZM102.069 18.7887C109.219 26.1038 114.362 35.1394 117 45.0225H116.969C119.59 54.7963 119.675 65.0769 117.218 74.8929C114.76 84.709 109.84 93.7364 102.923 101.122C96.0064 108.508 87.3205 114.008 77.6865 117.104C68.0525 120.199 57.7884 120.787 47.8639 118.812L44.4516 124.748C43.8906 125.555 43.0468 126.122 42.0874 126.336C41.128 126.55 40.1231 126.396 39.272 125.904C38.4209 125.412 37.7857 124.619 37.4925 123.68C37.1993 122.742 37.2694 121.728 37.6889 120.839L51.845 96.3216C52.1023 95.8768 52.4447 95.4872 52.8527 95.1748C53.2606 94.8624 53.7261 94.6334 54.2225 94.5009C54.7189 94.3684 55.2366 94.3349 55.7459 94.4025C56.2553 94.47 56.7463 94.6373 57.191 94.8946C57.6358 95.1519 58.0254 95.4943 58.3378 95.9022C58.6502 96.3102 58.8792 96.7756 59.0117 97.2721C59.1442 97.7685 59.1777 98.2861 59.1101 98.7955C59.0426 99.3048 58.8753 99.7959 58.618 100.241L50.2009 114.852C61.3365 116.746 72.7852 115.18 83.0028 110.364C93.2204 105.549 101.715 97.7152 107.342 87.9206C112.968 78.1261 115.456 66.8416 114.468 55.5893C113.481 44.3369 109.067 33.658 101.821 24.9929C102.013 22.9307 102.096 20.8597 102.069 18.7887ZM47.957 80.4282C47.0553 79.9148 45.9871 79.7788 44.9856 80.0501C43.984 80.3213 43.1304 80.9776 42.611 81.8759L17.9696 124.541C17.4499 125.447 17.3116 126.523 17.585 127.531C17.8584 128.54 18.5212 129.398 19.4276 129.918C20.334 130.437 21.4097 130.576 22.4181 130.302C23.4265 130.029 24.285 129.366 24.8047 128.46L49.4047 85.826C49.6656 85.3769 49.8352 84.8807 49.9036 84.3658C49.9721 83.851 49.9381 83.3277 49.8035 82.826C49.669 82.3243 49.4366 81.8542 49.1197 81.4427C48.8028 81.0312 48.4076 80.6865 47.957 80.4282Z" fill="#1428BF"/>
</svg>
